<svg width="238" height="114" viewBox="0 0 238 114" fill="none" xmlns="http://www.w3.org/2000/svg">
<path d="M158.958 27.3686H146.353C142.292 27.3686 139.007 24.1273 139.007 20.1387C139.007 16.1501 142.3 12.9088 146.353 12.9088H158.958C163.011 12.9088 166.304 9.65966 166.304 5.67889V-25.7896C166.304 -29.7861 169.597 -33.0195 173.65 -33.0195C177.703 -33.0195 180.996 -29.7783 180.996 -25.7896V5.67889C180.996 17.6448 171.108 27.3764 158.95 27.3764L158.958 27.3686Z" fill="#E4EDFF"/>
<path d="M187.998 69.9692H178.79C174.729 69.9692 171.444 66.7279 171.444 62.7393C171.444 58.7506 174.737 55.5094 178.79 55.5094H187.998C193.921 55.5094 198.741 50.7655 198.741 44.9359V-25.7974C198.741 -29.794 202.035 -33.0273 206.087 -33.0273C210.14 -33.0273 213.433 -29.7861 213.433 -25.7974V44.9359C213.433 58.7428 202.019 69.977 187.99 69.977L187.998 69.9692Z" fill="#E4EDFF"/>
<path d="M236.654 101.414C232.593 101.414 229.308 98.1729 229.308 94.1842V-25.8053C229.308 -29.8018 232.601 -33.0352 236.654 -33.0352C240.707 -33.0352 244 -29.7939 244 -25.8053V94.1842C244 98.1808 240.707 101.414 236.654 101.414Z" fill="#E4EDFF"/>
<path d="M-95.9918 5.10011C-95.1285 -44.6123 -61.796 -85.7023 -14.1392 -96.9917C12.4229 -103.278 37.6342 -99.2259 61.1268 -85.8912C88.5922 -70.2985 105.602 -46.8859 112.564 -16.448C114.651 -7.31423 115.146 1.98473 114.715 11.2916C114.523 15.4611 114.139 19.6858 112.173 23.6351C108.848 30.2907 103.436 33.9253 96.2419 35.4751C92.2372 36.3326 88.5043 35.6403 84.8273 34.1692C82.8369 33.3746 80.8226 32.6193 78.8642 31.7382C71.3744 28.3868 63.8126 28.2688 56.1229 31.0616C52.6218 32.3361 49.0967 33.6027 45.3878 34.2164C39.2968 35.2234 33.8053 33.4769 28.6416 30.4874C24.9086 28.3239 21.0958 26.3964 16.7873 25.6491C8.13844 24.1386 -0.15873 24.9096 -7.86438 29.3938C-11.1417 31.2977 -14.4829 33.0206 -18.2079 33.9332C-23.2517 35.1604 -28.0797 34.1928 -32.8598 32.5879C-36.3449 31.4157 -39.7981 30.1176 -43.4351 29.441C-48.8706 28.4262 -54.0504 29.3466 -59.0942 31.3606C-61.4203 32.2889 -63.7384 33.233 -66.0485 34.1928C-73.7142 37.3632 -80.7404 35.8606 -87.1911 31.1797C-92.2109 27.5372 -94.6329 22.3921 -95.4003 16.358C-95.9359 12.1333 -96.0478 7.90868 -95.9838 5.09225L-95.9918 5.10011Z" fill="#0A3967"/>
<defs>
<clipPath id="clip0_4879_6008">
<rect width="19.949" height="18.1731" fill="white" transform="translate(149 91)"/>
</clipPath>
</defs>
</svg>
